<svg xmlns="http://www.w3.org/2000/svg" width="31.956" height="28.667" viewBox="0 0 31.956 28.667">
  <g id="Grupo_2" data-name="Grupo 2" transform="translate(-1.97 -3)">
    <path id="Trazado_4" data-name="Trazado 4" d="M17.949,20.61,32.9,12.3,17.949,4,3,12.3Z" transform="translate(0)" fill="none" stroke="#3bad7f" stroke-width="1"/>
    <path id="Trazado_5" data-name="Trazado 5" d="M16.626,16.262l10.232-5.684a20.069,20.069,0,0,1,1.1,10.761,19.852,19.852,0,0,0-11.336,4.98,19.852,19.852,0,0,0-11.334-4.98A20.061,20.061,0,0,1,6.4,10.578Z" transform="translate(1.322 4.348)" fill="none" stroke="#3bad7f" stroke-width="1"/>
    <path id="Trazado_6" data-name="Trazado 6" d="M17.949,20.61,32.9,12.3,17.949,4,3,12.3Zm0,0L28.18,14.926a20.069,20.069,0,0,1,1.1,10.761,19.852,19.852,0,0,0-11.336,4.98,19.852,19.852,0,0,0-11.334-4.98,20.061,20.061,0,0,1,1.1-10.761ZM11.3,30.575V18.118l6.644-3.691" transform="translate(0)" fill="none" stroke="#3bad7f" stroke-linecap="round" stroke-linejoin="round" stroke-width="2"/>
  </g>
</svg>
