<svg xmlns="http://www.w3.org/2000/svg" width="32.46" height="28.67" viewBox="0 0 32.46 28.67">
  <path id="Trazado_7" data-name="Trazado 7" d="M32.9,18.676a43.993,43.993,0,0,1-14.95,2.586A44,44,0,0,1,3,18.676M24.594,7.927V4.963A3.158,3.158,0,0,0,21.272,2H14.628a3.158,3.158,0,0,0-3.322,2.963V7.927m6.644,8.89h.017M6.322,28.67H29.578A3.158,3.158,0,0,0,32.9,25.707V10.89a3.158,3.158,0,0,0-3.322-2.963H6.322A3.158,3.158,0,0,0,3,10.89V25.707A3.158,3.158,0,0,0,6.322,28.67Z" transform="translate(-1.72 -1)" fill="none" stroke="#3bad7f" stroke-linecap="round" stroke-linejoin="round" stroke-width="2"/>
</svg>
